<svg xmlns="http://www.w3.org/2000/svg" width="109" height="38" viewBox="0 0 109 38">
    <g fill="none">
        <path fill="#FFF" d="M37.307 19.52c0-3.121-1.94-5.865-4.856-6.921.126-.663.189-1.325.189-2.003C32.64 4.778 27.91.047 22.107.047c-3.406 0-6.56 1.624-8.546 4.368-.978-.757-2.176-1.167-3.422-1.167-3.09 0-5.598 2.507-5.598 5.598 0 .678.126 1.34.347 1.955C1.987 11.841 0 14.633 0 17.74c0 3.138 1.955 5.882 4.872 6.938-.126.647-.189 1.325-.189 2.003 0 5.802 4.715 10.517 10.517 10.517 3.406 0 6.56-1.64 8.531-4.384.978.773 2.176 1.199 3.422 1.199 3.09 0 5.597-2.507 5.597-5.598 0-.678-.126-1.34-.347-1.955 2.902-1.04 4.904-3.832 4.904-6.938"/>
        <path fill="#FED10A" d="M14.664 16.052l8.168 3.721 8.231-7.222c.126-.599.174-1.182.174-1.813 0-5.077-4.132-9.208-9.209-9.208-3.043 0-5.866 1.497-7.584 4.005l-1.372 7.111 1.592 3.406z"/>
        <path fill="#24BBB1" d="M6.213 24.693c-.127.6-.174 1.214-.174 1.845 0 5.093 4.147 9.224 9.24 9.224 3.06 0 5.913-1.514 7.632-4.037l1.356-7.08-1.813-3.468-8.2-3.737-8.041 7.253z"/>
        <path fill="#EF5098" d="M6.165 10.565l5.598 1.324 1.23-6.354c-.757-.584-1.703-.9-2.68-.9-2.429 0-4.416 1.972-4.416 4.416 0 .52.095 1.04.268 1.514"/>
        <path fill="#17A8E0" d="M5.677 11.905c-2.492.82-4.242 3.217-4.242 5.85 0 2.57 1.592 4.856 3.973 5.771l7.853-7.096-1.435-3.074-6.15-1.451z"/>
        <path fill="#93C83E" d="M24.33 31.725c.773.584 1.703.915 2.665.915 2.428 0 4.415-1.971 4.415-4.415 0-.536-.095-1.057-.268-1.53l-5.582-1.308-1.23 6.338z"/>
        <path fill="#0779A1" d="M25.466 23.92l6.15 1.435c2.506-.82 4.24-3.217 4.24-5.866 0-2.554-1.592-4.856-3.973-5.755l-8.042 7.048 1.625 3.138z"/>
        <path fill="#000" d="M52.16 26.144l.742-.08.047 1.514c-1.955.268-3.626.41-5.014.41-1.845 0-3.154-.536-3.926-1.608-.773-1.072-1.151-2.744-1.151-4.998 0-4.51 1.797-6.765 5.377-6.765 1.734 0 3.027.489 3.879 1.45.851.963 1.277 2.492 1.277 4.558l-.11 1.466h-8.484c0 1.42.253 2.476.773 3.154.52.678 1.403 1.025 2.68 1.025 1.293.031 2.586-.016 3.91-.126zm-.693-5.567c0-1.576-.252-2.696-.757-3.342-.504-.647-1.324-.978-2.46-.978-1.135 0-2.002.347-2.57 1.025-.567.678-.867 1.782-.883 3.295h6.67zM56.071 27.752L56.071 9.303 57.995 9.303 57.995 27.752zM70.152 18.78v6.323c0 .646 1.593.772 1.593.772l-.095 1.703c-1.356 0-2.475.11-3.153-.536-1.546.678-3.075.962-4.62.962-1.183 0-2.082-.331-2.697-1.009-.615-.662-.93-1.624-.93-2.886 0-1.245.315-2.176.946-2.759.63-.583 1.624-.962 2.98-1.088l4.037-.378V18.78c0-.867-.19-1.498-.568-1.877-.378-.378-.899-.567-1.545-.567h-5.062v-1.703h4.936c1.45 0 2.507.33 3.17 1.009.677.662 1.008 1.719 1.008 3.138zm-7.915 5.235c0 1.577.646 2.365 1.955 2.365 1.167 0 2.318-.19 3.437-.583l.584-.205V21.35l-3.8.363c-.773.063-1.325.284-1.672.662-.347.378-.504.93-.504 1.64zM77.674 16.352c-1.86 0-2.807.646-2.807 1.955 0 .599.22 1.025.647 1.277.425.252 1.403.505 2.932.773 1.53.268 2.602.63 3.233 1.12.63.472.946 1.371.946 2.696 0 1.324-.426 2.286-1.277 2.9-.852.616-2.082.931-3.722.931-1.056 0-4.604-.394-4.604-.394l.11-1.671c2.035.189 3.517.346 4.51.346.994 0 1.75-.157 2.27-.473.521-.315.79-.851.79-1.592 0-.741-.222-1.246-.663-1.514-.442-.268-1.42-.52-2.933-.757-1.514-.236-2.586-.583-3.217-1.056-.63-.458-.946-1.325-.946-2.57 0-1.246.442-2.176 1.325-2.776.883-.599 1.987-.898 3.295-.898 1.041 0 4.668.268 4.668.268v1.687c-1.908-.11-3.47-.252-4.557-.252zM91.928 16.572h-4.084v6.15c0 1.466.11 2.444.316 2.901.22.457.725.694 1.529.694l2.286-.158.127 1.593c-1.152.19-2.019.284-2.618.284-1.34 0-2.255-.331-2.775-.978-.52-.646-.773-1.892-.773-3.721v-6.765h-1.829v-1.671h1.83v-3.942h1.907v3.926h4.084v1.687zM94.609 11.984V9.76h1.923V12l-1.923-.016zm0 15.768V14.9h1.923v12.85H94.61zM104.89 14.633c.567 0 1.529.11 2.885.315l.615.079-.079 1.561c-1.372-.158-2.38-.236-3.027-.236-1.451 0-2.444.346-2.965 1.04-.52.694-.788 1.987-.788 3.863 0 1.877.236 3.186.725 3.927.489.74 1.498 1.103 3.043 1.103l3.028-.236.079 1.593c-1.593.236-2.791.362-3.58.362-2.002 0-3.39-.52-4.147-1.545-.756-1.025-1.15-2.76-1.15-5.204s.41-4.162 1.23-5.14c.835-.978 2.207-1.482 4.13-1.482z"/>
    </g>
</svg>
