<svg xmlns="http://www.w3.org/2000/svg" width="109" height="29" viewBox="0 0 109 29">
    <g fill="none">
        <path fill="#10AA50" d="M12.74 11.326c-1.523-6.615-4.7-8.378-5.505-9.618-.337-.555-.63-1.12-.881-1.708-.044.588-.12.957-.631 1.404C4.7 2.296.38 5.766.01 13.284c-.337 7.007 5.233 11.327 5.973 11.773.566.272 1.251 0 1.588-.25 2.688-1.818 6.354-6.648 5.168-13.48"/>
        <path fill="#B8C4C2" d="M6.474 21.216c-.142 1.719-.25 2.72-.62 3.7 0 0 .25 1.642.413 3.372h.61c.14-1.219.358-2.437.652-3.634-.773-.359-1.023-1.926-1.055-3.438z"/>
        <path fill="#12924F" d="M7.649 24.752c-.751-.348-.969-1.97-1.001-3.482.185-2.502.239-5.004.163-7.518C6.767 12.447 6.833 1.588 6.484 0c.24.533.512 1.055.806 1.567.805 1.25 3.949 3.013 5.45 9.661 1.176 6.844-2.437 11.685-5.091 13.524z"/>
        <path fill="#21313C" d="M107.124 22.467c-.924 0-1.664-.74-1.675-1.664 0-.914.74-1.654 1.665-1.665.914-.011 1.675.718 1.686 1.643.01.446-.163.87-.479 1.197-.315.315-.75.49-1.197.49zm0-3.177c-.62-.01-1.175.36-1.414.925-.24.566-.109 1.219.326 1.654.436.435 1.088.566 1.654.337.577-.24.947-.783.947-1.403.01-.403-.142-.795-.435-1.078-.283-.282-.675-.446-1.078-.435zm.403 2.557l-.424-.925h-.348v.925h-.262v-2.1h.631c.457 0 .653.196.653.588 0 .304-.141.5-.413.565l.446.947h-.283zm-.772-1.142h.37c.293 0 .413-.098.413-.37 0-.261-.109-.36-.446-.36h-.337v.73zM82.655 20.966c.446.348 1.339.5 2.122.5 1.012 0 2.002-.196 2.97-1.066.99-.903 1.676-2.274 1.676-4.472 0-2.1-.805-3.819-2.448-4.82-.936-.576-2.144-.805-3.515-.805-.391 0-.805.011-1.033.12-.098.076-.163.185-.185.294-.044.38-.044 3.242-.044 4.928 0 1.73 0 4.146.044 4.44.022.26.141.696.413.88m-4.21-11.608c.359 0 1.719.065 2.36.065 1.187 0 2.003-.065 4.222-.065 1.86 0 3.417.5 4.537 1.458 1.36 1.175 2.078 2.807 2.078 4.787 0 2.818-1.284 4.439-2.578 5.364-1.284.957-2.96 1.501-5.342 1.501-1.262 0-3.438-.043-5.255-.065h-.033c-.087-.163.152-.816.294-.838.5-.054.63-.076.86-.163.38-.163.467-.36.51-1.045.066-1.294.044-2.84.044-4.59 0-1.252.022-3.69-.022-4.462-.065-.652-.337-.816-.892-.946-.392-.076-.783-.142-1.186-.185-.032-.12.283-.686.392-.816M96.832 10.38c-.076.021-.185.228-.185.337-.022.75-.043 2.709-.043 4.058.01.054.054.098.108.109.272.022.947.043 1.513.043.794 0 1.25-.108 1.512-.228.664-.337.98-1.066.98-1.86 0-1.818-1.263-2.503-3.134-2.503-.25 0-.5.01-.751.044m4.765 8.334c0-1.828-1.349-2.873-3.797-2.873-.108 0-.892-.021-1.077.022-.054.022-.12.054-.12.098 0 1.316-.021 3.416.044 4.254.044.348.294.849.61 1.001.326.185 1.087.228 1.61.228 1.447 0 2.73-.816 2.73-2.73m-8.551-9.357c.185 0 .75.065 2.176.065 1.338 0 2.426-.043 3.732-.043 1.61 0 3.84.587 3.84 3.002 0 1.186-.838 2.144-1.936 2.6-.055.023-.055.066 0 .088 1.555.391 2.915 1.349 2.915 3.188 0 1.795-1.11 2.915-2.72 3.623-.99.435-2.208.587-3.438.587-.946 0-3.481-.098-4.885-.087-.141-.065.13-.729.261-.838.327 0 .642-.054.947-.141.511-.13.566-.294.631-1.045.043-.641.043-2.959.043-4.602 0-2.252.022-3.764 0-4.515-.021-.587-.228-.772-.63-.881-.316-.066-.838-.12-1.263-.185-.098-.109.218-.73.327-.816M17.354 22.467c-.055-.141-.077-.283-.066-.424 0-.098.022-.196.066-.283.272-.044.544-.098.816-.163.38-.098.522-.305.544-.784.054-1.131.065-3.242.043-4.732v-.044c0-.163 0-.38-.207-.533-.348-.218-.729-.392-1.12-.5-.174-.055-.283-.142-.272-.25 0-.11.12-.24.348-.284.62-.065 2.23-.446 2.861-.74.066.088.098.186.087.294 0 .066-.01.142-.021.207-.022.207-.033.446-.033.685 0 .066.044.11.098.131.054.022.12 0 .163-.033 1.208-.946 2.285-1.283 2.84-1.283.914 0 1.62.435 2.165 1.327.033.043.076.076.13.076.044 0 .088-.022.11-.065 1.109-.838 2.208-1.338 2.948-1.338 1.73 0 2.774 1.294 2.774 3.47 0 .62-.01 1.415-.01 2.155-.012.652-.012 1.262-.012 1.675 0 .109.131.392.338.446.26.12.62.185 1.088.272h.021c.033.12-.043.61-.108.707-.12 0-.283-.01-.48-.021-.358-.022-.859-.044-1.424-.044-1.165 0-1.763.022-2.34.054-.043-.141-.054-.598 0-.696.229-.043.468-.098.708-.163.359-.12.467-.283.49-.773.01-.348.075-3.394-.044-4.112-.11-.75-.675-1.632-1.915-1.632-.457 0-1.197.185-1.904.729-.044.043-.076.109-.076.174v.01c.087.392.087.85.087 1.546v1.218c-.011.838-.011 1.632 0 2.242 0 .402.25.5.446.576.109.033.196.044.283.065.163.044.337.087.598.131.033.174.033.348-.01.522-.012.066-.044.13-.077.185-.642-.022-1.306-.043-2.252-.043-.283 0-.762.01-1.175.021-.337.011-.653.022-.838.022-.043-.12-.065-.24-.065-.37 0-.12.022-.24.076-.337l.25-.044c.229-.043.414-.076.599-.12.315-.108.435-.271.457-.674.054-.935.108-3.623-.022-4.286-.229-1.088-.849-1.632-1.839-1.632-.577 0-1.306.282-1.904.728-.12.11-.185.272-.174.425v1.11c0 1.349-.01 3.035.022 3.764.022.218.098.49.522.577.087.032.25.054.435.087l.337.065c.044.228.022.479-.054.707-.185 0-.413-.01-.674-.022-.392-.021-.893-.043-1.458-.043-.664 0-1.121.022-1.491.043-.25.011-.468.022-.685.022M38.472 14.601c-.348-.01-.697.087-1.001.283-.73.435-1.1 1.305-1.1 2.6 0 2.405 1.22 4.091 2.971 4.091.468.01.925-.152 1.284-.457.533-.424.827-1.316.827-2.546 0-2.372-1.197-3.971-2.981-3.971m.337 7.866c-3.155 0-4.287-2.295-4.287-4.428 0-1.501.62-2.666 1.839-3.482.86-.522 1.839-.805 2.85-.826 2.416 0 4.102 1.708 4.102 4.156 0 1.675-.674 2.98-1.947 3.808-.61.37-1.676.772-2.557.772M70.905 14.601c-.36-.01-.707.087-1.001.283-.74.435-1.11 1.305-1.11 2.6 0 2.405 1.219 4.091 2.97 4.091.48.01.936-.152 1.295-.457.533-.424.816-1.316.816-2.546 0-2.372-1.186-3.971-2.97-3.971m.337 7.866c-3.166 0-4.286-2.295-4.286-4.428 0-1.501.62-2.666 1.838-3.482.86-.522 1.839-.805 2.85-.826 2.416 0 4.103 1.708 4.103 4.156 0 1.675-.675 2.98-1.948 3.808-.62.37-1.675.772-2.557.772M60.166 14.525c-.979 0-1.62.772-1.62 1.947s.543 2.579 2.088 2.579c.272 0 .751-.109.99-.37.36-.326.599-.99.599-1.697 0-1.534-.762-2.46-2.046-2.46m-.13 8.15c-.283 0-.555.065-.795.196-.783.49-1.153.979-1.153 1.545 0 .522.218.946.664 1.327.555.457 1.295.675 2.263.675 1.926 0 2.774-1.012 2.774-2.002 0-.697-.348-1.164-1.088-1.426-.565-.206-1.512-.315-2.665-.315m.13 4.787c-1.153 0-1.98-.24-2.687-.772-.686-.523-1.001-1.295-1.001-1.828.01-.337.141-.675.38-.925.197-.218.664-.642 1.742-1.36.032-.01.054-.044.054-.087 0-.033-.033-.076-.065-.087-.892-.326-1.154-.87-1.24-1.164v-.044c-.033-.12-.055-.228.108-.337.12-.087.316-.207.533-.326.294-.164.588-.349.86-.544.022-.033.043-.077.032-.12-.01-.044-.032-.076-.076-.098-1.305-.424-1.958-1.382-1.958-2.829-.011-.914.435-1.784 1.208-2.317.522-.403 1.838-.892 2.698-.892h.054c.87.021 1.371.195 2.057.446.391.141.805.206 1.218.185.729 0 1.045-.218 1.327-.48.044.11.066.24.066.36.021.305-.066.598-.24.849-.141.206-.5.348-.816.348h-.098c-.174-.011-.337-.044-.5-.087l-.087.032c-.022.033-.011.076.01.13.012.012.012.023.012.034.065.26.108.522.12.794 0 1.512-.61 2.176-1.274 2.665-.63.468-1.392.762-2.197.827-.011 0-.098.011-.25.022-.099.01-.23.022-.25.022h-.023c-.141.043-.511.217-.511.544 0 .26.163.598.98.663l.521.033c1.067.076 2.405.163 3.036.37.86.294 1.425 1.099 1.404 1.98 0 1.36-.99 2.644-2.644 3.427-.784.36-1.643.555-2.503.544M55.194 21.64c-.468-.065-.805-.13-1.197-.315-.087-.076-.13-.174-.152-.294-.043-.631-.043-2.491-.043-3.71 0-.99-.164-1.86-.588-2.48-.5-.697-1.218-1.11-2.143-1.11-.816 0-1.904.554-2.807 1.316-.022.022-.164.152-.164-.054.011-.196.044-.61.055-.87.022-.142-.033-.295-.13-.392-.588.293-2.242.685-2.862.75-.446.087-.555.512-.076.664.38.098.75.261 1.088.468.185.141.163.348.163.511.022 1.393.022 3.514-.044 4.668-.021.457-.141.62-.478.707l.032-.011c-.26.065-.522.109-.783.141-.098.11-.098.708 0 .827.218 0 1.284-.054 2.165-.054 1.219 0 1.85.054 2.165.054.12-.141.163-.696.076-.827-.283-.01-.576-.054-.86-.12-.336-.086-.413-.25-.434-.62-.044-.968-.044-3.035-.044-4.438 0-.392.098-.577.229-.686.424-.37 1.11-.62 1.719-.62.587 0 .99.185 1.283.435.338.294.555.718.599 1.164.087.784.065 2.361.065 3.721 0 .74-.065.925-.337 1.012-.13.055-.468.12-.86.163-.13.12-.087.697 0 .827.544 0 1.175-.065 2.1-.065 1.153 0 1.882.065 2.176.065.13-.152.174-.685.087-.827"/>
    </g>
</svg>
