<svg xmlns="http://www.w3.org/2000/svg" width="45" height="58" viewBox="0 0 45 58">
    <g fill="none">
        <path fill="#0078D4" d="M.5 8v42.037C.5 54.37 10.317 58 22.5 58V8H.5z"/>
        <path fill="#0072C5" d="M22.5 58h.35c11.989 0 21.65-3.513 21.65-7.963V8h-22v50z"/>
        <path fill="#0078D4" d="M22.5 58h.344C34.76 58 44.5 54.495 44.5 50.056V8H22.615L22.5 58z"/>
        <path fill="#FFF" d="M43.854 7.7c0 4.19-9.683 7.7-21.7 7.7-12.016 0-21.7-3.397-21.7-7.7 0-4.303 9.684-7.7 21.7-7.7 12.017 0 21.7 3.51 21.7 7.7z"/>
        <path fill="#50E6FF" d="M39.654 7.35c0 2.917-7.648 5.25-17.15 5.25-9.502 0-17.15-2.333-17.15-5.25s7.648-5.25 17.15-5.25c9.502 0 17.15 2.333 17.15 5.25z"/>
        <path fill="#50E6FF" d="M36.062 10.5c2.202-.933 3.592-1.983 3.592-3.15 0-2.917-7.648-5.25-17.15-5.25-9.502 0-17.15 2.333-17.15 5.25 0 1.167 1.39 2.333 3.592 3.15 3.13-1.283 8.112-1.983 13.558-1.983s10.43.816 13.558 1.983z"/>
        <g fill="#FFF">
            <path d="M9.202 10.474c0 1.284-.468 2.334-1.404 3.034-.936.7-2.223 1.05-3.979 1.05-1.404 0-2.574-.233-3.51-.816v-3.034c1.053.933 2.34 1.4 3.627 1.4.585 0 1.17-.117 1.522-.35.35-.233.468-.583.468-1.05 0-.467-.117-.817-.468-1.05-.351-.35-1.053-.7-2.107-1.167C1.245 7.557.191 6.157.191 4.524c0-1.284.469-2.217 1.405-2.918C2.532.906 3.702.44 5.224.44c1.287 0 2.457.233 3.393.583V3.94c-.936-.583-1.99-.933-3.16-.933-.584 0-1.052.116-1.404.35-.35.233-.468.583-.468 1.05 0 .467.117.817.468 1.05.234.233.82.583 1.756 1.05 1.287.584 2.223 1.167 2.808 1.867.351.467.585 1.167.585 2.1zM20.788 7.558c0-1.4-.35-2.45-.936-3.267-.585-.817-1.404-1.167-2.457-1.167s-1.99.35-2.575 1.167c-.702.817-.936 1.867-.936 3.267 0 1.284.351 2.45.936 3.267.585.817 1.522 1.167 2.575 1.167 1.053 0 1.872-.35 2.574-1.167.468-.817.82-1.867.82-3.267zm3.277-.117c0 1.634-.351 3.034-1.053 4.201-.703 1.167-1.756 1.984-3.16 2.45l3.979 3.734h-3.979l-2.808-3.15c-1.17 0-2.34-.35-3.277-.934-.936-.583-1.755-1.4-2.223-2.45-.585-1.05-.82-2.217-.82-3.5 0-1.4.235-2.684.82-3.851.585-1.167 1.404-1.984 2.457-2.567C15.054.79 16.225.44 17.63.44c1.287 0 2.457.234 3.393.817 1.053.583 1.756 1.4 2.34 2.45.469 1.167.703 2.334.703 3.734zM34.597 14.325L26.288 14.325 26.288.673 29.448.673 29.448 11.875 34.597 11.875z" transform="translate(6.054 25.9)"/>
        </g>
    </g>
</svg>
