<svg xmlns="http://www.w3.org/2000/svg" width="79" height="54" viewBox="0 0 79 54">
    <g fill="none">
        <path fill="#5D87A1" d="M19.24 48.65h-3.013c-.106-5.084-.4-9.864-.88-14.342h-.026L10.735 48.65H8.442L3.883 34.308h-.026c-.338 4.3-.551 9.08-.64 14.343H.471c.177-6.399.622-12.398 1.333-17.997h3.733l4.345 13.224h.027l4.372-13.224h3.572c.782 6.559 1.245 12.558 1.387 17.997m13.063-13.278c-1.227 6.655-2.845 11.49-4.853 14.51-1.564 2.323-3.279 3.486-5.145 3.486-.498 0-1.112-.15-1.84-.448v-1.605c.356.051.773.08 1.253.08.872 0 1.573-.24 2.107-.72.64-.586.959-1.244.959-1.972 0-.5-.25-1.52-.746-3.067l-3.306-10.265h2.96l2.372 7.678c.533 1.743.755 2.96.666 3.653 1.298-3.465 2.204-7.243 2.72-11.331h2.853z"/>
        <path fill="#F8981D" d="M72.398 48.65h-8.556V30.655h2.878v15.781h5.678v2.216zm-10.796.436l-3.308-1.633c.293-.241.574-.502.826-.804 1.407-1.652 2.108-4.095 2.108-7.33 0-5.954-2.336-8.933-7.011-8.933-2.292 0-4.08.756-5.359 2.267-1.405 1.653-2.107 4.088-2.107 7.306 0 3.163.622 5.484 1.866 6.956 1.138 1.334 2.853 2.001 5.147 2.001.856 0 1.641-.105 2.356-.316l4.308 2.508 1.174-2.022zM50.885 45.05c-.729-1.173-1.093-3.055-1.093-5.65 0-4.532 1.376-6.8 4.132-6.8 1.44 0 2.497.542 3.172 1.625.728 1.174 1.094 3.04 1.094 5.599 0 4.568-1.378 6.853-4.132 6.853-1.442 0-2.498-.54-3.173-1.627m-5.388-1.388c0 1.527-.56 2.779-1.679 3.76-1.12.976-2.621 1.466-4.503 1.466-1.76 0-3.467-.563-5.119-1.681l.774-1.546c1.421.712 2.708 1.066 3.864 1.066 1.084 0 1.932-.24 2.546-.717.614-.479.98-1.15.98-1.998 0-1.07-.745-1.983-2.113-2.749-1.261-.692-3.784-2.14-3.784-2.14-1.367-.997-2.052-2.067-2.052-3.83 0-1.458.51-2.636 1.532-3.531 1.023-.9 2.342-1.348 3.96-1.348 1.67 0 3.189.448 4.557 1.334l-.694 1.546c-1.17-.498-2.325-.746-3.464-.746-.922 0-1.635.222-2.13.667-.5.444-.807 1.011-.807 1.707 0 1.064.76 1.99 2.166 2.77 1.278.694 3.864 2.167 3.864 2.167 1.402.995 2.102 2.055 2.102 3.803"/>
        <path fill="#5D87A1" d="M76.012 24.626c-1.74-.044-3.088.131-4.219.61-.326.13-.846.13-.891.543.176.174.197.456.35.697.26.435.715 1.02 1.13 1.325.456.349.913.695 1.393.999.846.523 1.804.828 2.629 1.35.48.302.957.695 1.438 1.021.236.174.388.457.694.566v-.067c-.153-.195-.197-.478-.348-.696l-.653-.63c-.63-.847-1.415-1.587-2.26-2.195-.697-.48-2.22-1.131-2.502-1.933l-.044-.045c.479-.044 1.046-.218 1.5-.351.74-.195 1.415-.15 2.174-.346.35-.087.696-.197 1.046-.304v-.196c-.393-.392-.674-.913-1.088-1.283-1.107-.956-2.327-1.891-3.588-2.674-.675-.436-1.543-.717-2.262-1.088-.26-.13-.696-.195-.848-.413-.39-.478-.61-1.108-.893-1.675-.628-1.195-1.239-2.52-1.781-3.784-.393-.848-.631-1.694-1.11-2.478-2.24-3.696-4.674-5.935-8.415-8.132-.803-.458-1.76-.653-2.781-.892l-1.632-.086c-.348-.153-.697-.567-1-.762-1.241-.783-4.436-2.478-5.349-.24-.588 1.415.87 2.807 1.37 3.524.37.498.849 1.065 1.107 1.631.153.37.196.762.35 1.153.348.957.673 2.021 1.13 2.914.24.455.5.934.804 1.346.175.24.479.347.545.74-.303.433-.327 1.087-.501 1.63-.782 2.457-.477 5.501.632 7.307.347.543 1.175 1.74 2.282 1.281.98-.39.763-1.63 1.045-2.717.064-.262.022-.435.152-.607v.043c.303.608.61 1.194.89 1.804.675 1.065 1.85 2.174 2.828 2.912.521.393.934 1.066 1.586 1.306v-.065h-.043c-.132-.195-.325-.282-.498-.434-.393-.391-.827-.87-1.131-1.304-.912-1.218-1.719-2.567-2.435-3.959-.35-.675-.652-1.413-.934-2.087-.132-.26-.132-.652-.35-.783-.327.478-.804.891-1.043 1.477-.414.936-.457 2.088-.61 3.286l-.086.042c-.693-.174-.933-.89-1.197-1.499-.65-1.544-.76-4.024-.195-5.806.151-.456.806-1.891.545-2.326-.131-.416-.567-.653-.805-.98-.28-.413-.588-.934-.784-1.392-.521-1.217-.784-2.565-1.346-3.782-.262-.567-.718-1.153-1.087-1.676-.414-.586-.87-1-1.198-1.695-.108-.24-.26-.63-.086-.89.043-.175.131-.24.305-.284.281-.238 1.086.064 1.369.195.806.326 1.48.63 2.153 1.087.304.218.63.632 1.021.74h.458c.694.152 1.477.042 2.13.24 1.152.37 2.196.912 3.132 1.499 2.848 1.806 5.197 4.372 6.782 7.437.26.5.371.957.609 1.478.458 1.066 1.024 2.154 1.479 3.197.457 1.022.892 2.065 1.544 2.914.326.456 1.633.695 2.22.934.433.195 1.108.369 1.5.608.739.456 1.476.98 2.171 1.48.347.261 1.435.805 1.5 1.24M53.832 5.73c-.3-.003-.6.034-.89.11v.043h.042c.175.347.48.588.696.892.176.348.328.694.5 1.042l.041-.043c.307-.217.46-.565.46-1.087-.133-.154-.153-.304-.263-.457-.128-.217-.41-.326-.586-.5"/>
        <path fill="#F8981D" d="M78.083 48.648h.45v-2.205h-.675l-.552 1.505-.599-1.505h-.65v2.205h.425V46.97h.024l.628 1.678h.324l.625-1.678v1.678zm-3.63 0h.477v-1.831h.624v-.375h-1.75v.375h.649v1.83z"/>
    </g>
</svg>
