<svg xmlns="http://www.w3.org/2000/svg" width="32" height="33" viewBox="0 0 32 33">
    <g fill="none" fill-rule="evenodd">
        <path fill="#005BEA" d="M16.87 1c.702 0 1.27.568 1.27 1.27v1.215c0 .166.015.33.045.491 1.628.274 3.152.852 4.513 1.671.072-.06.138-.128.2-.2l.986-1.155c.45-.527 1.238-.596 1.773-.155l1.318 1.087c.542.446.619 1.246.173 1.787l-.015.017-.796.932c-.135.159-.251.332-.346.515.983 1.178 1.76 2.533 2.28 4.011.14.007.282-.003.423-.028l1.522-.263c.688-.12 1.343.339 1.467 1.026l.294 1.641c.124.69-.335 1.35-1.025 1.474l-.008.002-1.248.216c-.243.042-.477.115-.697.217l.001.02c0 1.564-.276 3.063-.782 4.452.101.092.215.172.337.242l1.315.746c.61.346.824 1.12.478 1.73l-.01.017-.853 1.452c-.351.598-1.117.803-1.72.461l-1.107-.627c-.187-.107-.385-.19-.589-.251-.999 1.224-2.217 2.261-3.593 3.053.018.088.043.174.074.258l.513 1.383c.244.658-.092 1.388-.75 1.632l-.013.005-1.63.583c-.656.234-1.377-.102-1.619-.754l-.428-1.155c-.058-.157-.13-.307-.214-.45-.782.147-1.587.224-2.409.224-.834 0-1.65-.079-2.44-.23-.035.068-.065.138-.092.21l-.52 1.4c-.24.653-.962.99-1.617.755l-1.63-.583c-.661-.236-1.005-.963-.769-1.623l.005-.014.422-1.137c.063-.17.108-.345.136-.522-1.379-.797-2.595-1.84-3.592-3.067-.113.04-.223.09-.33.151l-1.338.759c-.603.342-1.369.137-1.72-.461l-.854-1.452c-.355-.604-.153-1.382.452-1.737l.017-.01 1.084-.616c.203-.114.389-.254.554-.414C3.27 19.823 3 18.339 3 16.791v-.066c-.137-.058-.282-.1-.432-.126l-1.512-.261C.365 16.218-.098 15.56.02 14.87l.002-.008.294-1.64c.124-.688.779-1.147 1.467-1.027l1.258.217c.234.041.47.052.704.033.522-1.476 1.304-2.828 2.29-4.003-.059-.098-.126-.193-.202-.282l-.967-1.132c-.456-.533-.393-1.334.14-1.79l.018-.014 1.318-1.087c.535-.44 1.324-.372 1.773.155l.815.953c.121.143.256.272.402.386 1.364-.818 2.888-1.391 4.514-1.662.009-.073.013-.148.013-.222V2.27c0-.702.568-1.27 1.27-1.27h1.74zm-1.053 9.77c-3.314 0-6 2.686-6 6 0 3.313 2.686 6 6 6s6-2.687 6-6c0-3.314-2.686-6-6-6z"/>
        <circle cx="16" cy="17" r="8" fill="#FFF" stroke="#FFF" stroke-width="2"/>
        <path fill="#005BEA" fill-rule="nonzero" d="M12.7 20.183c.359-.36.359-.943 0-1.303l-.013-.012-1.915-1.845 1.915-1.845c.366-.353.377-.936.024-1.303l-.012-.012c-.366-.366-.96-.366-1.327 0l-2.453 2.453c-.39.39-.39 1.024 0 1.414l2.453 2.453c.366.366.96.366 1.327 0zm8.051 0l2.453-2.453c.39-.39.39-1.024 0-1.414l-2.453-2.453c-.366-.366-.96-.366-1.327 0-.36.36-.36.943 0 1.303l.012.012 1.916 1.845-1.916 1.845c-.366.353-.377.936-.024 1.303l.012.012c.367.366.96.366 1.327 0z"/>
        <path fill-rule="nonzero" stroke="#005BEA" stroke-linecap="round" stroke-width="1.5" d="M14.5 21.5L17.5 11.5"/>
    </g>
</svg>
