<svg xmlns="http://www.w3.org/2000/svg" width="53" height="51" viewBox="0 0 53 51">
    <defs>
        <linearGradient id="prefix__a" x1="17.372%" x2="82.628%" y1="-6.51%" y2="106.51%">
            <stop offset="0%" stop-color="#058F92"/>
            <stop offset="50%" stop-color="#038489"/>
            <stop offset="100%" stop-color="#026D71"/>
        </linearGradient>
    </defs>
    <g fill="none" transform="translate(.75)">
        <circle cx="26.643" cy="14.4" r="14.4" fill="#036C70"/>
        <circle cx="38.643" cy="27.6" r="13.2" fill="#1A9BA1"/>
        <circle cx="28.443" cy="40.8" r="10.2" fill="#37C6D0"/>
        <path fill="#000" d="M29.043 12.996v25.608c-.006.89-.546 1.69-1.368 2.028-.262.11-.544.168-.828.168h-8.591c-.012-.204-.012-.396-.012-.6-.004-.2.004-.4.024-.6.22-3.836 2.582-7.22 6.107-8.748V28.62c-7.845-1.243-13.196-8.611-11.953-16.457.009-.054.017-.109.027-.163.06-.405.144-.805.252-1.2h14.146c1.21.005 2.19.985 2.196 2.196z" opacity=".1"/>
        <path fill="#000" d="M25.648 12h-13.2c-1.332 7.832 3.935 15.261 11.766 16.595.237.04.475.075.714.103-3.72 1.764-6.43 6.774-6.66 10.902-.02.2-.029.4-.025.6 0 .204 0 .396.012.6.022.403.074.805.156 1.2h7.236c.89-.006 1.689-.545 2.028-1.368.11-.262.168-.544.168-.828V14.196c-.005-1.21-.985-2.19-2.195-2.196z" opacity=".2"/>
        <path fill="#000" d="M25.647 12H12.449c-1.333 7.832 3.935 15.262 11.766 16.596.16.027.32.051.482.073-3.6 1.891-6.203 6.89-6.429 10.931h7.379c1.209-.01 2.186-.987 2.196-2.196V14.196c-.005-1.21-.985-2.191-2.196-2.196z" opacity=".2"/>
        <path fill="#000" d="M24.447 12H12.448c-1.258 7.394 3.374 14.514 10.643 16.358-2.752 3.145-4.44 7.08-4.823 11.242h6.179c1.21-.005 2.19-.985 2.196-2.196V14.196c-.001-1.213-.984-2.195-2.196-2.196z" opacity=".2"/>
        <path fill="url(#prefix__a)" d="M2.442 12h22.001c1.215 0 2.2.985 2.2 2.2v22c0 1.215-.985 2.2-2.2 2.2h-22c-1.216 0-2.2-.985-2.2-2.2v-22c0-1.215.984-2.2 2.2-2.2z"/>
        <path fill="#FFF" d="M9.785 24.925c-.529-.349-.97-.812-1.291-1.356-.311-.568-.466-1.207-.45-1.854-.027-.875.27-1.73.836-2.4.595-.673 1.364-1.171 2.223-1.44.98-.32 2.005-.478 3.036-.467 1.356-.05 2.71.139 4 .556v2.81c-.56-.337-1.17-.584-1.809-.733-.692-.168-1.403-.253-2.116-.252-.751-.027-1.498.13-2.174.458-.522.223-.86.733-.862 1.297-.002.343.13.672.37.92.281.29.615.527.984.698.41.203 1.026.473 1.846.81.09.028.179.063.264.105.807.313 1.586.694 2.328 1.14.562.344 1.034.815 1.376 1.376.352.635.522 1.353.493 2.077.04.899-.237 1.783-.783 2.5-.544.66-1.272 1.147-2.093 1.399-.965.3-1.972.445-2.983.43-.907.004-1.813-.07-2.708-.22-.755-.123-1.492-.338-2.194-.64v-2.964c.67.476 1.42.832 2.215 1.051.792.245 1.615.376 2.444.389.768.048 1.534-.114 2.216-.467.478-.268.768-.775.756-1.319.003-.379-.148-.742-.419-1.01-.336-.327-.726-.597-1.153-.797-.492-.245-1.217-.567-2.175-.967-.762-.304-1.491-.683-2.177-1.13z"/>
    </g>
</svg>
