<svg xmlns="http://www.w3.org/2000/svg" width="89" height="30" viewBox="0 0 89 30">
    <g fill="#005BEA" fill-rule="evenodd">
        <g>
            <path d="M0 15.475L3.484 15.475 3.484 21.077 0 21.077z" opacity=".8" transform="translate(0 3.75) translate(0 .42)"/>
            <path d="M7.726 0c4.266 0 7.725 3.473 7.725 7.758 0 2.036-.78 3.888-2.058 5.272l4.944 7.926h-4.551l-3.63-5.832c-.764.255-1.581.392-2.43.392C3.459 15.516 0 12.043 0 7.758S3.459 0 7.726 0zm.092 2.804c-2.703 0-4.894 2.2-4.894 4.915 0 2.714 2.191 4.915 4.894 4.915 2.703 0 4.894-2.2 4.894-4.915s-2.19-4.915-4.894-4.915z" transform="translate(0 3.75) translate(0 .42)"/>
            <path d="M7.918 0v.002L7.726 0C3.54 0 .133 3.341.004 7.512L0 7.696H0V0h7.918z" opacity=".6" transform="translate(0 3.75) translate(0 .42)"/>
            <path d="M7.918 15.516v-.002l-.192.002c-4.185 0-7.593-3.34-7.722-7.512L0 7.82H0v7.696h7.918z" opacity=".3" transform="translate(0 3.75) translate(0 .42)"/>
        </g>
        <path fill-rule="nonzero" d="M21.417 2.66V.13h-2.855v2.53h2.855zm0 12.965V4.241h-2.855v11.384h2.855zm5.326 0V9.849c0-2.825 1.427-3.247 2.414-3.247 2.384 0 2.434 2.506 2.435 3.58v5.443h2.897v-6.54c-.01-1.192-.204-5.181-4.43-5.181-1.637 0-2.854.59-3.673 1.517v-1.18h-2.54v11.384h2.897zm12.925.316c1.742 0 2.855-.506 3.862-1.707v1.391h2.499V8.668c0-1.033-.021-1.834-.462-2.677-.798-1.518-2.436-2.066-4.43-2.066-2.729 0-4.283 1.307-4.85 3.183l2.583.822c.357-1.033 1.427-1.391 2.267-1.391 1.344 0 1.952.485 2.078 1.539-2.12.316-3.757.569-4.849.97-1.826.674-2.477 1.855-2.477 3.436 0 1.897 1.343 3.457 3.779 3.457zm.608-2.256c-.986 0-1.595-.463-1.595-1.243 0-.57.336-.97 1.175-1.307.651-.232 1.428-.401 3.338-.717-.02.548-.063 1.265-.293 1.75-.231.484-1.05 1.517-2.625 1.517zm10.847 1.94V.13h-2.855v15.495h2.855zm7.55.316c3.401 0 5.753-2.466 5.753-6.008 0-3.52-2.33-6.008-5.752-6.008-3.36 0-5.732 2.445-5.732 6.008 0 3.52 2.31 6.008 5.732 6.008zm0-2.677c-1.784 0-2.708-1.286-2.708-3.331 0-1.982.84-3.331 2.709-3.331 1.805 0 2.729 1.307 2.729 3.33 0 1.962-.903 3.332-2.73 3.332zM70.886 21c2.498 0 4.597-.97 5.143-3.057.126-.485.168-.97.168-1.539V4.241h-2.498v.632c-.756-.611-1.743-.948-2.918-.948-3.254 0-5.375 2.53-5.375 6.008 0 3.415 2.1 6.008 5.228 6.008 1.07 0 1.973-.253 2.708-.717v1.139c.042 1.265-1.155 1.918-2.435 1.918-.798 0-1.533-.358-1.89-1.033l-2.645 1.286c.86 1.476 2.582 2.467 4.514 2.467zm.21-7.61c-1.848 0-2.667-1.54-2.667-3.458 0-1.897.861-3.458 2.772-3.458 1.784 0 2.498 1.392 2.498 3.458 0 2.066-.693 3.457-2.603 3.457zm11.434 7.294L88.932 4.24h-2.855l-2.96 7.737-2.981-7.737h-2.96l4.576 11.3-1.868 5.144h2.645z" transform="translate(0 3.75)"/>
    </g>
</svg>
