<svg xmlns="http://www.w3.org/2000/svg" width="32" height="32" viewBox="0 0 32 32">
    <g fill="none" fill-rule="evenodd">
        <rect width="26" height="32" x="6" fill="#005BEA" rx="5"/>
        <rect width="24" height="13" y="12" fill="#FFF" rx="2"/>
        <path fill="#005BEA" fill-rule="nonzero" d="M5.06 22v-2.44h1.68c.13 0 .41-.01.6-.04 1.28-.2 1.86-1.13 1.86-2.34s-.57-2.14-1.86-2.34c-.19-.03-.46-.04-.6-.04H3.7V22h1.36zm1.62-3.71H5.06v-2.22h1.62c.14 0 .32.01.46.05.55.15.69.67.69 1.06s-.14.91-.69 1.06c-.14.04-.32.05-.46.05zm6.81 3.67c1.74-.21 2.71-1.73 2.71-3.56s-.97-3.35-2.71-3.56c-.33-.04-.75-.04-.86-.04H10.3V22h2.464c.18-.003.479-.01.726-.04zm-.734-1.24H11.68v-4.64h.95c.18 0 .53 0 .78.05.91.18 1.35 1.19 1.35 2.27 0 1.03-.41 2.08-1.35 2.27-.2.04-.464.048-.654.05zM18.86 22v-2.92h2.44v-1.36h-2.44v-1.56h3.04V14.8h-4.4V22h1.36z"/>
        <path fill="#FFF" d="M26.5 0v3.5c0 1.105.895 2 2 2H32V5c0-2.761-2.239-5-5-5h-.5z" opacity=".5"/>
    </g>
</svg>
