<svg xmlns="http://www.w3.org/2000/svg" xmlns:xlink="http://www.w3.org/1999/xlink" width="32" height="32" viewBox="0 0 32 32">
    <defs>
        <path id="prefix__b" d="M8.128 0h15.744c1.783 0 2.43.186 3.082.534.652.349 1.163.86 1.512 1.512.348.652.534 1.299.534 3.082v21.744c0 1.783-.186 2.43-.534 3.082-.349.652-.86 1.163-1.512 1.512-.652.348-1.299.534-3.082.534H8.128c-1.783 0-2.43-.186-3.082-.534-.652-.349-1.163-.86-1.512-1.512C3.186 29.302 3 28.655 3 26.872V5.128c0-1.783.186-2.43.534-3.082.349-.652.86-1.163 1.512-1.512C5.698.186 6.345 0 8.128 0z"/>
        <path id="prefix__d" d="M8 4h16c.552 0 1 .448 1 1s-.448 1-1 1H8c-.552 0-1-.448-1-1s.448-1 1-1z"/>
        <path id="prefix__e" d="M8 14h16c.552 0 1 .448 1 1s-.448 1-1 1H8c-.552 0-1-.448-1-1s.448-1 1-1z"/>
        <path id="prefix__f" d="M8 9h16c.552 0 1 .448 1 1s-.448 1-1 1H8c-.552 0-1-.448-1-1s.448-1 1-1z"/>
        <path id="prefix__h" d="M8 19h14c.552 0 1 .448 1 1s-.448 1-1 1H8c-.552 0-1-.448-1-1s.448-1 1-1z"/>
        <linearGradient id="prefix__a" x1="16.992%" x2="83.008%" y1="100%" y2="4.116%">
            <stop offset="0%" stop-color="#FFF"/>
            <stop offset="100%" stop-color="#FFF" stop-opacity=".3"/>
        </linearGradient>
        <linearGradient id="prefix__c" x1="0%" x2="100%" y1="50.617%" y2="49.434%">
            <stop offset="0%" stop-color="#FFF"/>
            <stop offset="100%" stop-color="#FFF" stop-opacity=".3"/>
        </linearGradient>
        <linearGradient id="prefix__g" x1="0%" x2="100%" y1="50.781%" y2="49.283%">
            <stop offset="0%" stop-color="#FFF"/>
            <stop offset="100%" stop-color="#FFF" stop-opacity=".3"/>
        </linearGradient>
        <linearGradient id="prefix__i" x1="0%" x2="100%" y1="51.02%" y2="49.064%">
            <stop offset="0%" stop-color="#FFF"/>
            <stop offset="100%" stop-color="#FFF" stop-opacity=".3"/>
        </linearGradient>
        <rect id="prefix__j" width="14" height="2" x="7" y="24" rx="1"/>
    </defs>
    <g fill="none" fill-rule="evenodd">
        <path d="M0 0H32V32H0z"/>
        <use fill="url(#prefix__a)" xlink:href="#prefix__b"/>
        <use fill="#D1E6FF" xlink:href="#prefix__b"/>
        <use fill="url(#prefix__c)" xlink:href="#prefix__d"/>
        <use fill="#0F1C76" xlink:href="#prefix__d"/>
        <use fill="url(#prefix__c)" xlink:href="#prefix__e"/>
        <use fill="#0F1C76" xlink:href="#prefix__e"/>
        <g>
            <use fill="url(#prefix__c)" xlink:href="#prefix__f"/>
            <use fill="#0F1C76" xlink:href="#prefix__f"/>
        </g>
        <g>
            <use fill="url(#prefix__g)" xlink:href="#prefix__h"/>
            <use fill="#0F1C76" xlink:href="#prefix__h"/>
        </g>
        <g>
            <use fill="url(#prefix__i)" xlink:href="#prefix__j"/>
            <use fill="#0F1C76" xlink:href="#prefix__j"/>
        </g>
    </g>
</svg>
