<svg xmlns="http://www.w3.org/2000/svg" width="143" height="48" viewBox="0 0 143 48">
    <g fill="#005BEA" fill-rule="evenodd">
        <g>
            <path d="M0 24.76L5.597 24.76 5.597 33.723 0 33.723z" opacity=".8" transform="translate(0 6) translate(0 .671)"/>
            <path d="M12.413 0c6.855 0 12.413 5.557 12.413 12.413 0 3.257-1.255 6.221-3.307 8.436l7.945 12.681H22.15l-5.831-9.331c-1.228.407-2.541.627-3.906.627C5.557 24.826 0 19.268 0 12.413 0 5.557 5.557 0 12.413 0zm.149 4.486c-4.343 0-7.864 3.52-7.864 7.864 0 4.343 3.52 7.864 7.864 7.864 4.343 0 7.864-3.521 7.864-7.864s-3.521-7.864-7.864-7.864z" transform="translate(0 6) translate(0 .671)"/>
            <path d="M12.723 0h-.31C5.557 0 0 5.557 0 12.413l.001-.099H0V0h12.723z" opacity=".6" transform="translate(0 6) translate(0 .671)"/>
            <path d="M12.723 24.826h-.31C5.557 24.826 0 19.268 0 12.413l.001.099H0v12.314h12.723z" opacity=".3" transform="translate(0 6) translate(0 .671)"/>
        </g>
        <path fill-rule="nonzero" d="M34.412 4.255V.208h-4.587v4.047h4.587zm0 20.745V6.785h-4.587V25h4.587zm8.557 0v-9.242c0-4.52 2.293-5.195 3.879-5.195 3.83 0 3.91 4.01 3.912 5.73V25h4.655V14.535c-.015-1.906-.328-8.29-7.117-8.29-2.631 0-4.587.945-5.903 2.43v-1.89h-4.081V25h4.655zm20.767.506c2.8 0 4.587-.81 6.206-2.732V25h4.014V13.869c0-1.653-.034-2.935-.742-4.284-1.282-2.429-3.913-3.306-7.117-3.306-4.385 0-6.881 2.092-7.792 5.094l4.149 1.315c.573-1.653 2.293-2.226 3.643-2.226 2.158 0 3.137.776 3.339 2.462-3.407.506-6.038.911-7.792 1.552-2.934 1.08-3.98 2.968-3.98 5.498 0 3.036 2.159 5.532 6.072 5.532zm.978-3.61c-1.586 0-2.564-.741-2.564-1.99 0-.91.54-1.551 1.89-2.09 1.045-.372 2.293-.642 5.362-1.148-.033.877-.1 2.024-.472 2.8-.371.776-1.686 2.429-4.216 2.429zM82.14 25V.208h-4.587V25h4.587zm12.132.506c5.465 0 9.242-3.947 9.242-9.613 0-5.633-3.744-9.614-9.242-9.614-5.397 0-9.208 3.913-9.208 9.614 0 5.633 3.71 9.613 9.208 9.613zm0-4.284c-2.867 0-4.351-2.057-4.351-5.33 0-3.17 1.35-5.329 4.351-5.329 2.901 0 4.385 2.091 4.385 5.33 0 3.137-1.45 5.33-4.385 5.33zm19.62 12.38c4.014 0 7.387-1.552 8.264-4.892.203-.775.27-1.551.27-2.462V6.785h-4.014v1.012c-1.214-.978-2.8-1.518-4.688-1.518-5.229 0-8.635 4.048-8.635 9.614 0 5.464 3.373 9.613 8.399 9.613 1.72 0 3.17-.405 4.35-1.147v1.822c.068 2.023-1.854 3.07-3.912 3.07-1.282 0-2.462-.574-3.036-1.654l-4.25 2.058c1.383 2.361 4.15 3.946 7.252 3.946zm.338-12.177c-2.969 0-4.284-2.463-4.284-5.532 0-3.036 1.383-5.532 4.452-5.532 2.867 0 4.014 2.226 4.014 5.532 0 3.305-1.113 5.532-4.182 5.532zm18.372 11.67l10.288-26.31h-4.588l-4.756 12.38-4.79-12.38h-4.756l7.354 18.08-3.002 8.23h4.25z" transform="translate(0 6)"/>
    </g>
</svg>
