<svg xmlns="http://www.w3.org/2000/svg" width="143" height="48" viewBox="0 0 143 48">
    <g fill="#005BEA" fill-rule="evenodd">
        <g>
            <path d="M0 24.76L5.597 24.76 5.597 33.723 0 33.723z" opacity=".8" transform="translate(0 -3) translate(0 9.671)"/>
            <path d="M12.413 0c6.855 0 12.413 5.557 12.413 12.413 0 3.257-1.255 6.221-3.307 8.436l7.945 12.681H22.15l-5.831-9.331c-1.228.407-2.541.627-3.906.627C5.557 24.826 0 19.268 0 12.413 0 5.557 5.557 0 12.413 0zm.149 4.486c-4.343 0-7.864 3.52-7.864 7.864 0 4.343 3.52 7.864 7.864 7.864 4.343 0 7.864-3.521 7.864-7.864s-3.521-7.864-7.864-7.864z" transform="translate(0 -3) translate(0 9.671)"/>
            <path d="M12.723 0h-.31C5.557 0 0 5.557 0 12.413l.001-.099H0V0h12.723z" opacity=".6" transform="translate(0 -3) translate(0 9.671)"/>
            <path d="M12.723 24.826h-.31C5.557 24.826 0 19.268 0 12.413l.001.099H0v12.314h12.723z" opacity=".3" transform="translate(0 -3) translate(0 9.671)"/>
        </g>
        <text font-family="Manrope-ExtraBold, Manrope" font-size="33.731" font-weight="600" letter-spacing="-1.124" transform="translate(0 -3)">
            <tspan x="27.126" y="34">inalogy</tspan>
        </text>
    </g>
</svg>
